<svg xmlns="http://www.w3.org/2000/svg" xmlns:xlink="http://www.w3.org/1999/xlink" viewBox="0 0 1491.94 1491.94"><defs><style>.cls-1{fill:none;}.cls-2{fill:#fff;}.cls-3{clip-path:url(#clip-path);}.cls-4{clip-path:url(#clip-path-2);}.cls-5{fill:#b10011;fill-rule:evenodd;}</style><clipPath id="clip-path"><rect class="cls-1" x="132.76" y="137.57" width="1226.43" height="1216.8"/></clipPath><clipPath id="clip-path-2"><rect class="cls-1" x="132.76" y="137.58" width="1226.41" height="1216.8"/></clipPath></defs><title>Asset 4</title><g id="Layer_2" data-name="Layer 2"><g id="Layer_1-2" data-name="Layer 1"><circle class="cls-2" cx="745.97" cy="745.97" r="745.97"/><g id="Artwork_3" data-name="Artwork 3"><g class="cls-3"><g class="cls-4"><path class="cls-5" d="M740.94,1157.1c-222,0-410.47-184.17-410.47-410.74,0-63.19,14.63-121,38.5-174.14l82.31,82.42,19.23-169.51,19.26-168.78L320.86,335.62,152,354.88l72.36,72.46C166.6,519,132.74,630,132.74,746.36c0,332.89,275.1,608,608.2,608,115.82,0,231.62-28.5,323.58-90.93L919.43,1117.81c-53,29.26-110.78,39.29-178.49,39.29m540.92-126.38h0c43.47-86.32,72.73-183.41,72.73-284.36,0-338.29-275.48-608.78-613.65-608.78-101.13,0-202.71,28.5-284.65,72.46L606,359.52c38.46-19.27,86.95-23.9,135-23.9C972.56,335.62,1156,519,1156,746.36c0,47.8-9.2,91.72-23.83,134.85l-72.31-72.42-19.27,164.14L1021,1142.43l169.3-19.26,168.85-14.63Z"/></g></g></g></g></g></svg>